# xmcd CD database file
#
# Track frame offsets:
#	150
#	12245
#	24522
#	36060
#	48347
#	57655
#	67425
#	77540
#	87535
#	100817
#	112792
#	123820
#	137500
#	147992
#	160000
#	171900
#	183385
#	193242
#	206965
#	219897
#	231817
#	244145
#	257962
#	272082
#	286675
#
# Disc length: 3957 seconds
#
# Revision: 2
# Processed by: cddbd v1.5.2PL0 Copyright (c) Steve Scherf et al.
# Submitted via: CDex 1.51
#
DISCID=6b0f7319
DTITLE=Loretta Lynn - Legendary Country Singers
DYEAR=1995
DGENRE=Country
TTITLE0=Success
TTITLE1=Blue Kentucky Girl
TTITLE2=Before I'm Over You
TTITLE3=Mr. and Mrs. Used To Be
TTITLE4=Wine Women and Song
TTITLE5=Don't Come Home a-Drinkin' (With Lovin' on Your Mind)
TTITLE6=You Ain't Woman Enough
TTITLE7=Fist City
TTITLE8=Woman of the World (Leave My World Alone)
TTITLE9=Wings upon Your Horns
TTITLE10=Lead Me On
TTITLE11=Coal Miner's Daughter
TTITLE12=You're Lookin' at Country
TTITLE13=One's on the Way
TTITLE14=The Pill
TTITLE15=Love Is the Foundation
TTITLE16=Trouble in Paradise
TTITLE17=When the Tingle Becomes a Chill
TTITLE18=Hey Loretta
TTITLE19=Rated X
TTITLE20=Out of My Head and Back in My Bed
TTITLE21=Somebody Somewhere (Don't Know What He's Missin' Tonight)
TTITLE22=She's Got You
TTITLE23=I Still Believe in Waltzes
TTITLE24=I'm a Honky Tonk Girl
EXTD=YEAR: 1995
EXTT0=
EXTT1=
EXTT2=
EXTT3=
EXTT4=
EXTT5=
EXTT6=
EXTT7=
EXTT8=
EXTT9=
EXTT10=
EXTT11=
EXTT12=
EXTT13=
EXTT14=
EXTT15=
EXTT16=
EXTT17=
EXTT18=
EXTT19=
EXTT20=
EXTT21=
EXTT22=
EXTT23=
EXTT24=
PLAYORDER=
